<svg width="201" height="69" viewBox="0 0 201 69" fill="none" xmlns="http://www.w3.org/2000/svg">
<path d="M12.8738 50.9736C6.08551 41.7574 0.746465 33.8255 1.0093 33.3472C1.47865 32.493 39.271 20.4366 40.8668 20.632C41.3152 20.6869 42.7116 22.2727 43.9699 24.156L46.2577 27.5803L34.7046 31.2034C28.3504 33.1961 23.0457 35.2297 22.9165 35.7226C22.7873 36.2154 23.5872 37.7208 24.6941 39.0679L26.7067 41.5172L37.0675 38.245C42.7659 36.4453 47.5561 35.1313 47.7122 35.3251C51.9704 40.6079 51.3422 42.7429 45.0503 44.3728C42.8027 44.955 38.8984 46.1953 36.374 47.129L31.7842 48.8266L36.7209 55.3876C39.4361 58.9961 41.5502 62.299 41.4189 62.7272C41.2012 63.4371 27.1869 68.0014 25.8072 67.8117C25.4822 67.7671 19.6622 60.1899 12.8738 50.9736Z" fill="#E9EE09" stroke="#545454" stroke-width="0.721758"/>
<path d="M70.0162 55.4365C68.8398 53.5681 66.8496 51.783 65.5936 51.4694C63.7693 51.014 64.1987 50.6417 67.728 49.6183C71.9454 48.3955 72.2089 48.4184 73.5296 50.1232C74.8429 51.8184 75.084 51.8302 78.2769 50.3564C83.7173 47.8451 89.9656 49.6232 88.9845 53.4036C88.4941 55.2932 81.2888 57.9809 77.7439 57.5965C76.3241 57.4426 75.0578 57.72 74.9299 58.2129C74.4511 60.0581 72.0839 58.7206 70.0162 55.4366L70.0162 55.4365Z" fill="#E9EE09" stroke="#545454" stroke-width="0.721758"/>
<path d="M83.0206 54.4536C83.5693 52.3395 80.2268 50.7188 77.7123 51.8795C75.1977 53.0403 76.4724 55.6155 79.7367 55.9695C81.6399 56.1758 82.7007 55.6862 83.0206 54.4536Z" fill="white" stroke="#545454" stroke-width="0.721758"/>
<path d="M133.583 58.3816C131.101 57.4817 134.291 46.2188 136.946 46.5067C138.367 46.6609 138.737 48.0221 138.219 51.1943L137.489 55.6647L162.125 48.4639C175.675 44.5034 186.915 40.6685 187.104 39.9417C187.535 38.2801 190.627 37.7308 196.457 38.2798L201 38.7076L197.196 42.0296C194.227 44.6224 192.846 45.1704 190.903 44.5262C189.135 43.9398 181.15 45.8125 163.323 50.9942C133.745 59.5917 135.629 59.1236 133.583 58.3815L133.583 58.3816Z" fill="#FF0057"/>
<path d="M93.5355 52.3174C94.1198 50.066 90.7388 45.1856 88.3953 44.8976C86.8617 44.7091 87.3046 44.2498 90.0042 43.229C92.0528 42.4543 94.1358 41.8646 94.6329 41.9185C95.1301 41.9724 96.649 43.7827 98.0082 45.9414C99.3674 48.1001 101.231 50.0647 102.15 50.3071C103.069 50.5495 101.423 51.4246 98.4917 52.2518C94.0168 53.5147 93.222 53.5252 93.5355 52.3174V52.3174Z" fill="#E9EE09" stroke="#545454" stroke-width="0.721758"/>
<path d="M107.012 47.9764C107.715 46.963 107.17 45.7499 105.547 44.7164L102.963 43.0703L106.711 42.0039C110.277 40.9891 110.539 41.0562 112.119 43.3876C113.033 44.7353 114.844 45.9533 116.145 46.0943C117.649 46.2574 116.445 46.9657 112.837 48.0395C106.036 50.064 105.567 50.059 107.012 47.9764L107.012 47.9764Z" fill="#E9EE09" stroke="#545454" stroke-width="0.721758"/>
<path d="M55.1085 38.5237C54.2665 37.1863 50.4474 38.4528 84.8453 28.6625C135.021 14.3815 143.52 12.1921 145.64 13.001C148.523 14.1013 145.446 26.2335 142.368 25.8998C140.774 25.727 140.589 24.5294 141.571 20.7449C142.275 18.0336 142.527 15.7801 142.131 15.7372C141.166 15.6326 134.583 17.4408 98.0347 27.8495C56.5346 39.6683 55.9246 39.82 55.1084 38.5237L55.1085 38.5237Z" fill="#FF0057"/>
<path d="M118.321 42.5442C117.467 41.3829 116.122 40.6036 115.332 40.8124C114.542 41.0212 115.253 39.9373 116.911 38.4037C118.569 36.8698 120.381 36.0088 120.939 36.4899C121.496 36.971 123.03 37.2289 124.347 37.063C126.278 36.8199 126.364 36.9777 124.792 37.877C123.292 38.7351 123.174 39.4215 124.281 40.851C125.764 42.7649 129.563 42.6812 128.354 40.7612C127.95 40.1205 128.255 40.0154 129.11 40.5005C131.304 41.7464 130.219 43.761 126.97 44.471C122.552 45.4363 120.037 44.876 118.321 42.5442L118.321 42.5442Z" fill="#E9EE09" stroke="#545454" stroke-width="0.721758"/>
<path d="M103.423 39.6463C104.054 38.9543 105.728 38.5139 107.145 38.6676C108.867 38.8542 109.342 39.3644 108.576 40.205C107.946 40.897 106.271 41.3374 104.854 41.1837C103.133 40.997 102.658 40.4869 103.423 39.6463Z" fill="#E9EE09" stroke="#545454" stroke-width="0.721758"/>
<path d="M133.394 41.2868C133.557 40.6623 134.608 38.9059 135.731 37.3838C137.085 35.5479 137.296 34.5646 136.356 34.4627C135.576 34.3782 134.404 35.0804 133.75 36.0231C132.48 37.8541 130.656 38.0892 129.685 36.5471C129.359 36.0286 132.751 34.5272 137.223 33.2107C145.815 30.6814 147.199 31.1409 143.641 35.341C141.053 38.3957 143.699 38.7408 147.044 35.7847C148.15 34.8073 149.398 34.3187 149.816 34.6989C151.612 36.331 149.508 37.6754 141.561 39.9744C136.663 41.3914 133.224 41.944 133.394 41.2868L133.394 41.2868Z" fill="#E9EE09" stroke="#545454" stroke-width="0.721758"/>
<path d="M60.9497 22.211C61.5473 21.5547 60.9957 20.0723 59.7244 18.9168L57.4126 16.8158L61.0928 15.7686C64.531 14.7901 64.8417 14.8534 65.8178 16.7296C66.3925 17.8342 68.0712 19.1864 69.5483 19.7345C72.0143 20.6496 71.7746 20.8455 66.618 22.1294C59.9979 23.7778 59.5168 23.7847 60.9497 22.211V22.211Z" fill="#E9EE09" stroke="#545454" stroke-width="0.721758"/>
<path d="M76.0715 17.884L79.0143 15.3434L73.098 14.6971L67.1816 14.0509L73.2688 12.4842C77.3812 11.4258 79.8076 11.2565 80.748 11.9623C82.243 13.0845 84.8159 11.9483 83.9378 10.5536C83.6716 10.1309 85.4503 9.30578 87.8903 8.71994L92.3267 7.65479L89.5717 10.0333C85.7435 13.3384 85.8615 13.5723 91.4492 13.7522C94.1656 13.8397 96.3689 13.9853 96.3453 14.0763C96.1165 14.958 87.118 16.5379 84.6329 16.1327C82.4446 15.7759 81.5441 16.0157 81.8156 16.8836C82.0448 17.6163 80.2817 18.6409 77.6716 19.2918L73.1287 20.4246L76.0715 17.884Z" fill="#E9EE09" stroke="#545454" stroke-width="0.721758"/>
<path d="M58.287 13.8754C58.8001 13.2491 60.3662 12.7176 61.7671 12.6944C63.3963 12.6676 63.9779 13.0626 63.3811 13.7909C62.8679 14.4173 61.3019 14.9487 59.901 14.9719C58.2718 14.9987 57.6902 14.6038 58.287 13.8754Z" fill="#E9EE09" stroke="#545454" stroke-width="0.721758"/>
<path d="M102.019 11.3914C105.723 8.19318 105.688 8.099 100.57 7.54413L96.1113 7.06063L101.473 5.43549C104.422 4.54166 106.949 4.19362 107.088 4.66205C107.228 5.13048 107.979 5.58288 108.758 5.66737C109.538 5.75184 109.995 5.24606 109.775 4.54339C109.545 3.80787 111.303 2.7851 113.919 2.1329L118.462 1L115.519 3.54066L112.576 6.0813L118.492 6.72751L124.409 7.37373L118.307 8.95144C114.952 9.81919 112.102 10.1534 111.975 9.69418C111.848 9.23495 110.834 8.97893 109.723 9.12526C108.611 9.27159 107.852 9.89171 108.036 10.5033C108.22 11.1149 106.322 12.1001 103.817 12.6926L99.2636 13.7698L102.019 11.3914V11.3914Z" fill="#E9EE09" stroke="#545454" stroke-width="0.721758"/>
</svg>
