<svg width="80" height="80" viewBox="0 0 80 80" fill="none" xmlns="http://www.w3.org/2000/svg">
<g clip-path="url(#clip0)">
<path d="M1.24902 4.36768H78.749C79.4403 4.36768 79.999 3.80893 79.999 3.11768C79.999 2.42643 79.4403 1.86768 78.749 1.86768H1.24902C0.557773 1.86768 -0.000976562 2.42643 -0.000976562 3.11768C-0.000976562 3.80893 0.557773 4.36768 1.24902 4.36768Z" fill="white"/>
<path d="M47.5435 14.6014C47.5597 14.6864 47.576 14.7689 47.6097 14.8489C47.6222 14.8752 47.6197 14.9052 47.6335 14.9314C47.6685 15.0027 47.7185 15.0614 47.7647 15.1214C47.7847 15.1477 47.7972 15.1739 47.8185 15.1989C47.9172 15.3102 48.0335 15.3977 48.161 15.4664C48.1722 15.4739 48.1797 15.4852 48.191 15.4914L51.941 17.3664C51.9435 17.3677 51.9447 17.3664 51.9472 17.3677C52.0872 17.4377 52.2422 17.4614 52.3985 17.4739C52.431 17.4777 52.4647 17.4989 52.4985 17.4989H52.4997H52.501C52.506 17.4989 52.511 17.4964 52.516 17.4964C52.6347 17.4952 52.751 17.4752 52.8622 17.4414C52.8985 17.4302 52.9335 17.4102 52.9685 17.3952C53.051 17.3627 53.131 17.3214 53.2047 17.2702C53.2197 17.2602 53.2347 17.2577 53.2497 17.2464L55.4147 15.6177H63.7185V16.8677C63.7185 17.5589 64.2772 18.1177 64.9685 18.1177H76.226C78.2935 18.1177 79.976 16.4352 79.976 14.3677C79.976 12.3002 78.2935 10.6177 76.226 10.6177H64.9672C64.276 10.6177 63.7172 11.1764 63.7172 11.8677V13.1177H55.4135L53.2497 11.4964C53.1985 11.4577 53.1372 11.4464 53.0822 11.4177C53.0047 11.3764 52.9322 11.3314 52.8485 11.3064C52.7647 11.2814 52.6822 11.2802 52.5985 11.2739C52.5235 11.2677 52.451 11.2552 52.3747 11.2627C52.2835 11.2727 52.1997 11.3039 52.1122 11.3339C52.056 11.3539 51.996 11.3539 51.941 11.3802L48.191 13.2552C48.1447 13.2789 48.116 13.3189 48.0747 13.3452C48.0035 13.3914 47.9385 13.4389 47.8772 13.4989C47.8147 13.5614 47.7672 13.6289 47.7197 13.7002C47.6935 13.7414 47.6535 13.7689 47.6322 13.8139C47.6185 13.8402 47.621 13.8702 47.6085 13.8964C47.576 13.9764 47.5585 14.0589 47.5422 14.1439C47.5272 14.2214 47.5122 14.2952 47.5122 14.3727C47.5122 14.4502 47.5285 14.5239 47.5435 14.6014ZM76.2272 15.6177H66.2197V14.3764C66.2197 14.3739 66.221 14.3714 66.221 14.3677C66.221 14.3639 66.2197 14.3614 66.2197 14.3589L66.2185 13.1177H76.2272C76.9172 13.1177 77.4772 13.6777 77.4772 14.3677C77.4772 15.0577 76.9172 15.6177 76.2272 15.6177ZM52.3697 13.9602L52.9172 14.3702L52.3685 14.7839L51.546 14.3727L52.3697 13.9602Z" fill="white"/>
<path d="M78.7515 43.1247H66.2515C65.5603 43.1247 65.0015 43.6835 65.0015 44.3747V49.3797C65.0015 49.391 65.0078 49.401 65.0078 49.411C65.024 53.0835 67.694 56.1347 71.194 56.7547C70.6178 64.5035 64.1428 70.6347 56.2503 70.6347C54.0365 70.6347 51.939 70.1397 50.044 69.2747C52.9078 66.6972 54.6615 63.116 54.959 59.2572C57.8228 58.6935 59.9903 56.1697 59.9965 53.1435C59.9965 53.1385 59.999 53.136 59.999 53.131V49.3785C59.999 48.6872 59.4403 48.1285 58.749 48.1285H48.7515C48.0603 48.1285 47.5015 48.6872 47.5015 49.3785V53.131C47.5015 53.1447 47.509 53.1547 47.509 53.1672C47.5265 56.1522 49.6453 58.646 52.4603 59.2397C52.1478 62.6722 50.434 65.816 47.7128 67.951C43.819 65.2435 41.259 60.746 41.2503 55.6572C41.2503 55.6485 41.2515 55.641 41.2515 55.6322C41.2515 55.5935 41.2328 55.561 41.229 55.5235V31.7735C46.1628 31.1647 49.999 26.9547 49.999 21.8572C49.999 21.166 49.4403 20.6072 48.749 20.6072H44.999V8.11725H78.749C79.4403 8.11725 79.999 7.5585 79.999 6.86725C79.999 6.176 79.4403 5.61725 78.749 5.61725H43.7615C43.7565 5.61725 43.7528 5.61475 43.749 5.61475C43.7453 5.61475 43.7415 5.61725 43.7365 5.61725H36.2578C36.2528 5.61725 36.2503 5.61475 36.2453 5.61475C36.2403 5.61475 36.2378 5.61725 36.2328 5.61725H1.24902C0.557773 5.61725 -0.000976562 6.176 -0.000976562 6.86725C-0.000976562 7.5585 0.557773 8.11725 1.24902 8.11725H35.0003V20.6097H31.249C30.5578 20.6097 29.999 21.1685 29.999 21.8597C29.999 26.9422 33.814 31.1435 38.729 31.7697V55.6347C38.729 55.6647 38.7453 55.691 38.7465 55.721C38.7178 60.7847 36.1665 65.256 32.2878 67.9522C29.5665 65.8172 27.8528 62.6735 27.5403 59.241C30.3553 58.646 32.474 56.1522 32.4915 53.1685C32.4915 53.1547 32.499 53.1447 32.499 53.1322V49.3797C32.499 48.6885 31.9403 48.1297 31.249 48.1297H21.2515C20.5603 48.1297 20.0015 48.6885 20.0015 49.3797V53.1322C20.0015 53.1372 20.004 53.1397 20.004 53.1447C20.0103 56.171 22.1778 58.6935 25.0415 59.2585C25.3378 63.1172 27.0928 66.6985 29.9565 69.276C28.0615 70.141 25.9653 70.636 23.7503 70.636C15.8578 70.636 9.38277 64.5047 8.80652 56.756C12.3065 56.136 14.9778 53.0847 14.9928 49.4122C14.9928 49.401 14.999 49.391 14.999 49.381V44.3747C14.999 43.6835 14.4403 43.1247 13.749 43.1247H1.24902C0.557773 43.1247 -0.000976562 43.6835 -0.000976562 44.3747V49.3797C-0.000976562 49.386 0.00277344 49.391 0.00277344 49.396C0.0102734 53.1172 2.74402 56.201 6.30652 56.7735C6.89902 65.8922 14.4853 73.1347 23.7503 73.1347H33.8765C34.4578 75.9822 36.9815 78.1322 39.999 78.1322C43.0165 78.1322 45.5415 75.9822 46.1215 73.1347H56.2503C65.5153 73.1347 73.1015 65.8922 73.694 56.7735C77.2565 56.201 79.9903 53.116 79.9978 49.396C79.9978 49.391 80.0015 49.386 80.0015 49.3797V44.3747C80.0015 43.6835 79.4428 43.1247 78.7515 43.1247ZM50.0053 53.1322C50.0053 53.126 50.0015 53.1197 50.0015 53.1135V50.6297H57.499V53.126C57.499 53.1285 57.4978 53.1297 57.4978 53.1322C57.4978 55.1647 55.869 56.8147 53.8503 56.8697C53.8253 56.8685 53.8053 56.8547 53.779 56.8547C53.7478 56.8547 53.7203 56.871 53.689 56.8735C51.6528 56.8397 50.0053 55.1785 50.0053 53.1322ZM22.5028 53.1322C22.5028 53.1297 22.5015 53.1285 22.5015 53.126V50.6297H29.999V53.1135C29.999 53.1197 29.9953 53.126 29.9953 53.1322C29.9953 55.1785 28.3478 56.8397 26.3115 56.8735C26.2803 56.871 26.2528 56.8547 26.2215 56.8547C26.1953 56.8547 26.1753 56.8685 26.1503 56.8697C24.1315 56.8147 22.5028 55.1647 22.5028 53.1322ZM2.50152 49.3797C2.50152 49.3747 2.49902 49.3722 2.49902 49.3672V45.6247H12.499V49.3547C12.499 49.3635 12.494 49.371 12.494 49.3797C12.494 52.1347 10.2528 54.3772 7.49777 54.3772C4.74277 54.3772 2.50152 52.1347 2.50152 49.3797ZM41.2503 20.6097V11.6897C41.694 11.5735 42.1115 11.3985 42.499 11.1722V20.611H41.2503V20.6097ZM39.9965 9.36725C39.0753 9.36725 38.2778 8.861 37.844 8.11725H42.149C41.7153 8.861 40.9178 9.36725 39.9965 9.36725ZM37.5003 11.1735C37.889 11.3997 38.3065 11.5747 38.7503 11.691V20.6097H37.5003V11.1735ZM32.6128 23.1097H36.1778C36.2028 23.111 36.224 23.1247 36.2503 23.1247C36.2765 23.1247 36.2978 23.111 36.324 23.1097H39.9278C39.9528 23.111 39.974 23.1247 40.0003 23.1247C40.0265 23.1247 40.0478 23.111 40.074 23.1097H43.6778C43.7028 23.111 43.724 23.1247 43.7503 23.1247C43.7765 23.1247 43.7978 23.111 43.8228 23.1097H47.3878C46.7903 26.651 43.7103 29.3597 40.0015 29.3597C36.2928 29.3597 33.209 26.651 32.6128 23.1097ZM40.0003 62.096C41.3765 65.5435 43.8165 68.4472 46.9153 70.411C47.0203 70.5072 47.139 70.5797 47.2653 70.6347H45.0103C45.0053 70.6347 45.0015 70.6322 44.9978 70.6322C44.994 70.6322 44.9903 70.6347 44.9853 70.6347H35.0103C35.0053 70.6347 35.0015 70.6322 34.9978 70.6322C34.994 70.6322 34.9903 70.6347 34.9853 70.6347H32.7328C32.8603 70.5797 32.9778 70.5072 33.0828 70.411C36.184 68.4472 38.624 65.5435 40.0003 62.096ZM39.999 75.6322C38.3728 75.6322 36.999 74.5847 36.4803 73.1347H43.519C42.999 74.5847 41.6253 75.6322 39.999 75.6322ZM72.5028 54.3772C69.7478 54.3772 67.5065 52.1347 67.5065 49.3797C67.5065 49.371 67.5015 49.3635 67.5015 49.3547V45.6247H77.5015V49.3672C77.5015 49.3722 77.499 49.3747 77.499 49.3797C77.499 52.1347 75.2578 54.3772 72.5028 54.3772Z" fill="white"/>
</g>
<defs>
<clipPath id="clip0">
<rect width="80" height="80" fill="white"/>
</clipPath>
</defs>
</svg>
