<svg width="80" height="80" viewBox="0 0 80 80" fill="none" xmlns="http://www.w3.org/2000/svg">
<g clip-path="url(#clip0)">
<path d="M73.0165 18.1016H6.98353C3.12596 18.1423 0 21.2914 0 25.1585V35.7577C0 39.65 3.16659 42.8165 7.05882 42.8165H10.8911C12.1081 46.6307 15.3054 49.5673 19.2689 50.4132V54.6089C19.2689 56.0333 18.11 57.1922 16.6855 57.1922H15.9216C14.4971 57.1922 13.3382 56.0333 13.3382 54.6089C13.3382 53.3094 12.2847 52.2559 10.9853 52.2559C9.6858 52.2559 8.63231 53.3094 8.63231 54.6089C8.63231 58.6281 11.9023 61.8981 15.9216 61.8981H16.6855C20.7048 61.8981 23.9747 58.6281 23.9747 54.6089V50.4132C27.9384 49.5673 31.1355 46.6305 32.3525 42.8165H49.3749C50.5918 46.6307 53.7892 49.5673 57.7528 50.4132V54.6089C57.7528 56.0333 56.5939 57.1922 55.1694 57.1922H54.4056C52.9812 57.1922 51.8223 56.0333 51.8223 54.6089C51.8223 53.3094 50.7688 52.2559 49.4693 52.2559C48.1699 52.2559 47.1164 53.3094 47.1164 54.6089C47.1164 58.6281 50.3864 61.8981 54.4056 61.8981H55.1694C59.1887 61.8981 62.4587 58.6281 62.4587 54.6089V50.4132C66.4221 49.5673 69.6195 46.6305 70.8364 42.8165H72.9412C76.8334 42.8165 80 39.65 80 35.7577V25.1585C80 21.2915 76.8742 18.1423 73.0165 18.1016V18.1016ZM23.9747 45.5182V39.4005C23.9747 38.1011 22.9213 37.0476 21.6218 37.0476C20.3224 37.0476 19.2689 38.1011 19.2689 39.4005V45.5182C16.8132 44.5704 15.0659 42.1864 15.0659 39.4005C15.0659 35.7856 18.0069 32.8446 21.6218 32.8446C25.2367 32.8446 28.1777 35.7856 28.1777 39.4005C28.1777 42.1864 26.4304 44.5704 23.9747 45.5182V45.5182ZM62.4587 45.5182V39.4005C62.4587 38.1011 61.4052 37.0476 60.1057 37.0476C58.8063 37.0476 57.7528 38.1011 57.7528 39.4005V45.5182C55.2971 44.5704 53.5496 42.1864 53.5496 39.4005C53.5496 35.7856 56.4907 32.8446 60.1057 32.8446C63.7206 32.8446 66.6616 35.7856 66.6616 39.4005C66.6616 42.1864 64.9142 44.5704 62.4587 45.5182ZM75.2941 35.7577C75.2941 37.0551 74.2386 38.1107 72.9412 38.1107H71.2915C70.6493 32.5064 65.8791 28.1387 60.1057 28.1387C54.3322 28.1387 49.5622 32.5064 48.9198 38.1107H32.8075C32.1653 32.5064 27.3951 28.1387 21.6218 28.1387C15.8485 28.1387 11.0783 32.5066 10.4361 38.1107H7.05882C5.76141 38.1107 4.70588 37.0551 4.70588 35.7577V25.1585C4.70588 23.8611 5.76141 22.8056 7.05882 22.8056H72.9412C74.2386 22.8056 75.2941 23.8611 75.2941 25.1585V35.7577Z" fill="url(#paint0_linear)"/>
</g>
<defs>
<linearGradient id="paint0_linear" x1="40" y1="18.1016" x2="40" y2="61.8981" gradientUnits="userSpaceOnUse">
<stop stop-color="#E9EE09"/>
<stop offset="1" stop-color="#FF0057"/>
</linearGradient>
<clipPath id="clip0">
<rect width="80" height="80" fill="white"/>
</clipPath>
</defs>
</svg>
