<svg width="80" height="79" viewBox="0 0 80 79" fill="none" xmlns="http://www.w3.org/2000/svg">
<path d="M69.4799 25.5881H64.789V10.4855C64.789 9.64944 64.1071 8.96924 63.2689 8.96924H59.6857C59.4737 8.96924 59.2719 9.01304 59.0884 9.09155C58.905 9.01304 58.703 8.96924 58.4911 8.96924H54.9079C54.0697 8.96924 53.3878 9.64944 53.3878 10.4855V20.8398H39.3805C38.5423 20.8398 37.8604 21.52 37.8604 22.3563V25.5882H28.9806C29.7111 24.7095 30.1507 23.583 30.1507 22.3563C30.1507 20.1198 28.6576 18.161 26.5675 17.5094V14.3761H26.8391C27.3488 14.3761 27.7619 13.9631 27.7619 13.4533C27.7619 12.9435 27.3488 12.5304 26.8391 12.5304H20.867C20.3573 12.5304 19.9442 12.9435 19.9442 13.4533C19.9442 13.9631 20.3573 14.3761 20.867 14.3761H21.1386V17.5094C19.0485 18.161 17.5554 20.1198 17.5554 22.3563C17.5554 23.583 17.9949 24.7095 18.7255 25.5882H9.52011C8.68192 25.5882 8 26.2684 8 27.1045V40.1621C8 40.3726 8.04344 40.5732 8.12157 40.7557C8.04344 40.938 8 41.1386 8 41.3491V54.4069C8 55.243 8.68192 55.9233 9.51986 55.9232H19.2393L16.9283 66.1821C16.8267 66.6331 16.9341 67.0991 17.2232 67.4605C17.513 67.8233 17.9463 68.0313 18.4113 68.0313H22.0287C22.6592 68.0313 23.2312 67.6356 23.4522 67.0467L27.6285 55.9233H51.371L55.5472 67.0465C55.7681 67.6356 56.3402 68.0313 56.9707 68.0313H60.588C61.053 68.0313 61.4862 67.8232 61.7761 67.4605C62.0651 67.0991 62.1726 66.6331 62.0709 66.1823L59.76 55.9232H69.4794C70.3176 55.9232 70.9995 55.243 70.9995 54.4069V41.3491C70.9995 41.1387 70.9561 40.938 70.8779 40.7557C70.9561 40.5733 70.9995 40.3726 70.9995 40.1621H71V27.1044C71 26.2683 70.3181 25.5881 69.4799 25.5881ZM22.1914 19.1582C22.6463 19.0933 22.9843 18.7039 22.9843 18.2444V14.3761H24.7218V18.2444C24.7218 18.704 25.0598 19.0935 25.5147 19.1582C27.1055 19.3843 28.305 20.7593 28.305 22.3563C28.305 24.1385 26.8437 25.5882 25.0474 25.5882H22.6586C20.8622 25.5882 19.4009 24.1383 19.4011 22.3563C19.4011 20.7593 20.6006 19.3843 22.1914 19.1582ZM21.8042 66.1856H18.8197L21.1313 55.9233H25.6571L21.8042 66.1856ZM38.5769 54.0776H9.84569V41.6785H38.5769V54.0776ZM38.5769 39.8328H9.84569V27.4339H38.5769V39.8328ZM60.0109 10.8149H62.9428V25.5882H60.0109V10.8149ZM55.2333 10.8149H58.1652V25.5882H56.4277V22.3563C56.4277 21.6316 55.9153 21.025 55.2333 20.8758V10.8149ZM60.1798 66.1856H57.1954L53.3424 55.9233H57.8682L60.1798 66.1856ZM69.1538 54.0776H40.4226V41.6785H69.1538V54.0776ZM69.1538 39.8328H40.4226V27.4339H48.3781C48.8879 27.4339 49.301 27.0208 49.301 26.511C49.301 26.0013 48.8879 25.5882 48.3781 25.5882H39.706V22.6855H54.5821V25.5882H51.6828C51.173 25.5882 50.7599 26.0013 50.7599 26.511C50.7599 27.0208 51.173 27.4339 51.6828 27.4339H69.1538V39.8328Z" fill="url(#paint0_linear)"/>
<path d="M21.8047 46.4267H27.4671C27.9769 46.4267 28.39 46.0137 28.39 45.5039C28.39 44.9941 27.9769 44.5811 27.4671 44.5811H21.8047C21.2949 44.5811 20.8818 44.9941 20.8818 45.5039C20.8818 46.0137 21.2949 46.4267 21.8047 46.4267Z" fill="url(#paint1_linear)"/>
<path d="M50.6094 31.2593C50.6094 31.769 51.0224 32.1821 51.5322 32.1821H57.1947C57.7045 32.1821 58.1175 31.769 58.1175 31.2593C58.1175 30.7495 57.7045 30.3364 57.1947 30.3364H51.5322C51.0224 30.3364 50.6094 30.7495 50.6094 31.2593Z" fill="url(#paint2_linear)"/>
<path d="M51.5322 46.4267H57.1947C57.7045 46.4267 58.1175 46.0137 58.1175 45.5039C58.1175 44.9941 57.7043 44.5811 57.1947 44.5811H51.5322C51.0224 44.5811 50.6094 44.9941 50.6094 45.5039C50.6094 46.0137 51.0224 46.4267 51.5322 46.4267Z" fill="url(#paint3_linear)"/>
<path d="M21.8047 32.1821H27.4671C27.9769 32.1821 28.39 31.769 28.39 31.2593C28.39 30.7495 27.9769 30.3364 27.4671 30.3364H21.8047C21.2949 30.3364 20.8818 30.7495 20.8818 31.2593C20.8818 31.769 21.2949 32.1821 21.8047 32.1821Z" fill="url(#paint4_linear)"/>
<defs>
<linearGradient id="paint0_linear" x1="39.5" y1="8.96924" x2="39.5" y2="68.0313" gradientUnits="userSpaceOnUse">
<stop stop-color="#E9EE09"/>
<stop offset="1" stop-color="#FF0057"/>
</linearGradient>
<linearGradient id="paint1_linear" x1="24.6359" y1="44.5811" x2="24.6359" y2="46.4267" gradientUnits="userSpaceOnUse">
<stop stop-color="#E9EE09"/>
<stop offset="1" stop-color="#FF0057"/>
</linearGradient>
<linearGradient id="paint2_linear" x1="54.3634" y1="30.3364" x2="54.3634" y2="32.1821" gradientUnits="userSpaceOnUse">
<stop stop-color="#E9EE09"/>
<stop offset="1" stop-color="#FF0057"/>
</linearGradient>
<linearGradient id="paint3_linear" x1="54.3634" y1="44.5811" x2="54.3634" y2="46.4267" gradientUnits="userSpaceOnUse">
<stop stop-color="#E9EE09"/>
<stop offset="1" stop-color="#FF0057"/>
</linearGradient>
<linearGradient id="paint4_linear" x1="24.6359" y1="30.3364" x2="24.6359" y2="32.1821" gradientUnits="userSpaceOnUse">
<stop stop-color="#E9EE09"/>
<stop offset="1" stop-color="#FF0057"/>
</linearGradient>
</defs>
</svg>
