<svg width="80" height="79" viewBox="0 0 80 79" fill="none" xmlns="http://www.w3.org/2000/svg">
<path d="M16.2501 25.2676H13.75V27.6003H16.2501V25.2676Z" fill="url(#paint0_linear)"/>
<path d="M65.0001 25.2676H62.5V27.6003H65.0001V25.2676Z" fill="url(#paint1_linear)"/>
<path d="M51.2501 25.2676H48.75V27.6003H51.2501V25.2676Z" fill="url(#paint2_linear)"/>
<path d="M31.2501 25.2676H28.75V27.6003H31.2501V25.2676Z" fill="url(#paint3_linear)"/>
<path d="M76.221 46.8338C78.4416 45.8898 79.9998 43.7149 79.9998 41.1882C79.9998 38.6726 78.4548 36.5062 76.2498 35.5555V20.8717C76.2498 16.4815 72.6185 12.9097 68.155 12.9097H46.8447C43.9662 12.9097 41.4354 14.3964 39.9999 16.6291C38.5645 14.3966 36.0337 12.9097 33.1551 12.9097H11.8447C7.3813 12.9097 3.74992 16.4815 3.74992 20.8717V35.5557C1.545 36.5062 0 38.6726 0 41.1882C0 43.7149 1.55822 45.8896 3.77881 46.8338C1.53944 47.9499 0 50.2351 0 52.8686C0 56.5973 3.08411 59.6309 6.87501 59.6309H7.49999V65.7785H10.0001V59.6309H69.9999V65.7785H72.5V59.6309H73.125C76.9159 59.6309 80 56.5973 80 52.8686C79.9998 50.2351 78.4604 47.9499 76.221 46.8338ZM77.4999 41.1882C77.4999 43.2221 75.8176 44.8766 73.7498 44.8766C71.6822 44.8766 69.9999 43.2219 69.9999 41.1882C69.9999 39.1545 71.6822 37.4998 73.7498 37.4998C75.8176 37.4998 77.4999 39.1545 77.4999 41.1882ZM70.0041 46.1063H69.4716C69.5238 46.004 69.5716 45.8996 69.6156 45.793C69.741 45.902 69.8701 46.0072 70.0041 46.1063ZM41.2502 41.8328V20.8717C41.2499 17.8372 43.7596 15.3686 46.8447 15.3686H68.155C71.2401 15.3686 73.7498 17.8372 73.7498 20.8717V35.0408C71.9457 35.0408 70.3188 35.7975 69.1769 37.004C68.3847 35.858 67.0485 35.1039 65.5367 35.1039H54.4634C52.0378 35.1039 50.0642 37.045 50.0642 39.4309V44.1752C50.0642 44.8689 50.232 45.5246 50.5284 46.1063H41.2502V41.8328ZM67.564 42.061V44.175C67.564 45.1058 66.9115 45.8874 66.0335 46.1061H53.9663C53.0882 45.8874 52.4358 45.1058 52.4358 44.1752V39.4309C52.4358 38.3313 53.3452 37.4366 54.4633 37.4366H65.5365C66.6546 37.4366 67.564 38.3313 67.564 39.4309V40.3154C67.5225 40.6008 67.4998 40.8919 67.4998 41.1882C67.4998 41.4846 67.5225 41.7758 67.564 42.061ZM6.25002 20.8717C6.25002 17.8372 8.75976 15.3686 11.8447 15.3686H33.1551C36.24 15.3686 38.7499 17.8372 38.7499 20.8717V41.8328V46.1063H9.99569C11.5152 44.9838 12.5 43.197 12.5 41.1882C12.5 37.7985 9.69626 35.0406 6.25002 35.0406V20.8717ZM2.50011 41.1882C2.50011 39.1545 4.18241 37.4998 6.25019 37.4998C8.3178 37.4998 10.0001 39.1545 10.0001 41.1882C10.0001 43.2221 8.3178 44.8766 6.25019 44.8766C4.18225 44.8768 2.50011 43.2221 2.50011 41.1882ZM73.1248 57.1718H6.87501C4.46258 57.1718 2.49994 55.2413 2.49994 52.8686C2.49994 50.4959 4.46258 48.5654 6.87501 48.5654H73.1247C75.5371 48.5654 77.4997 50.4959 77.4997 52.8686C77.4999 55.2413 75.5373 57.1718 73.1248 57.1718Z" fill="url(#paint4_linear)"/>
<defs>
<linearGradient id="paint0_linear" x1="15.0001" y1="25.2676" x2="15.0001" y2="27.6003" gradientUnits="userSpaceOnUse">
<stop stop-color="#E9EE09"/>
<stop offset="1" stop-color="#FF0057"/>
</linearGradient>
<linearGradient id="paint1_linear" x1="63.7501" y1="25.2676" x2="63.7501" y2="27.6003" gradientUnits="userSpaceOnUse">
<stop stop-color="#E9EE09"/>
<stop offset="1" stop-color="#FF0057"/>
</linearGradient>
<linearGradient id="paint2_linear" x1="50.0001" y1="25.2676" x2="50.0001" y2="27.6003" gradientUnits="userSpaceOnUse">
<stop stop-color="#E9EE09"/>
<stop offset="1" stop-color="#FF0057"/>
</linearGradient>
<linearGradient id="paint3_linear" x1="30.0001" y1="25.2676" x2="30.0001" y2="27.6003" gradientUnits="userSpaceOnUse">
<stop stop-color="#E9EE09"/>
<stop offset="1" stop-color="#FF0057"/>
</linearGradient>
<linearGradient id="paint4_linear" x1="40" y1="12.9097" x2="40" y2="65.7785" gradientUnits="userSpaceOnUse">
<stop stop-color="#E9EE09"/>
<stop offset="1" stop-color="#FF0057"/>
</linearGradient>
</defs>
</svg>
