<svg width="84" height="83" viewBox="0 0 84 83" fill="none" xmlns="http://www.w3.org/2000/svg">
<path d="M67.3824 0H15.6176C14.7242 0 14 0.712892 14 1.59231V19.1085V25.478V41.4017V47.7712V65.2874V71.6569C14 72.5363 14.7242 73.2492 15.6176 73.2492H67.3824C68.2756 73.2492 69 72.5363 69 71.6569V65.2874V47.7712V41.4017V25.478V19.1085V1.59231C69 0.712892 68.2756 0 67.3824 0ZM65.7648 70.0645H17.2352V66.8797H65.7647V70.0645H65.7648ZM23.7058 62.1026V54.1408H26.9411V62.1026C26.9411 62.9806 26.2155 63.6949 25.3235 63.6949C24.4316 63.6949 23.7058 62.9806 23.7058 62.1026ZM65.7648 63.6949H29.8983C30.0778 63.1965 30.1765 62.6609 30.1765 62.1026V52.5483C30.1765 51.6689 29.4522 50.956 28.5589 50.956H22.0882C21.1948 50.956 20.4706 51.6689 20.4706 52.5483V62.1026C20.4706 62.6609 20.5693 63.1966 20.7488 63.6949H17.2352V49.3635H65.7647V63.6949H65.7648ZM65.7648 46.1789H17.2352V42.9942H65.7647V46.1789H65.7648ZM49.5882 36.6246V35.0323H56.0589V36.6246C56.0589 38.3807 54.6075 39.8094 52.8235 39.8094C51.0395 39.8094 49.5882 38.3807 49.5882 36.6246ZM65.7648 23.8857H31.794C30.9007 23.8857 30.1765 24.5986 30.1765 25.478C30.1765 26.3574 30.9007 27.0703 31.794 27.0703H65.7647V39.8092H58.4236C58.976 38.8716 59.294 37.7842 59.294 36.6245V33.4397C59.294 32.5603 58.5697 31.8474 57.6764 31.8474H47.9705C47.0773 31.8474 46.3529 32.5603 46.3529 33.4397V36.6246C46.3529 37.7843 46.6709 38.8717 47.2233 39.8094H17.2352V27.0705H22.0881C22.9815 27.0705 23.7057 26.3576 23.7057 25.4781C23.7057 24.5987 22.9813 23.8858 22.0881 23.8858H17.2352V20.7011H65.7647V23.8857H65.7648ZM65.7648 17.5162H17.2352V3.18477H65.7647V17.5162H65.7648Z" fill="url(#paint0_linear)"/>
<path d="M26.8563 27.49C26.5167 27.1557 26.0455 26.9634 25.5653 26.9634C25.0851 26.9634 24.6139 27.1557 24.2743 27.49C23.9347 27.8243 23.7393 28.2882 23.7393 28.7609C23.7393 29.2336 23.9347 29.6974 24.2743 30.0317C24.6139 30.366 25.0851 30.5583 25.5653 30.5583C26.0455 30.5583 26.5167 30.366 26.8563 30.0317C27.1959 29.6974 27.3913 29.2336 27.3913 28.7609C27.3913 28.2882 27.1961 27.8243 26.8563 27.49Z" fill="url(#paint1_linear)"/>
<defs>
<linearGradient id="paint0_linear" x1="41.5" y1="0" x2="41.5" y2="73.2492" gradientUnits="userSpaceOnUse">
<stop stop-color="#E9EE09"/>
<stop offset="1" stop-color="#FF0057"/>
</linearGradient>
<linearGradient id="paint1_linear" x1="25.5653" y1="26.9634" x2="25.5653" y2="30.5583" gradientUnits="userSpaceOnUse">
<stop stop-color="#E9EE09"/>
<stop offset="1" stop-color="#FF0057"/>
</linearGradient>
</defs>
</svg>
